<svg xmlns="http://www.w3.org/2000/svg" viewBox="0 0 176.62 36.99"><defs><style>.cls-1,.cls-2{fill:#53808c;}.cls-2{fill-rule:evenodd;}.cls-3{fill:#394662;}</style></defs><title>Accel_Logo_Taurus</title><g id="Layer_2" data-name="Layer 2"><g id="Web"><path class="cls-1" d="M17.77,5.4l.65-3.28.68,3.23a13.48,13.48,0,0,1,2.79.33l-1.38-5A1,1,0,0,0,19.59,0H17.34a.94.94,0,0,0-.91.71L15.05,5.92A13.49,13.49,0,0,1,17.77,5.4Z"/><path class="cls-1" d="M8.68,10.05,6.74,7.17,9.63,9.05a13.41,13.41,0,0,1,2.25-1.72L7.21,4.69a.94.94,0,0,0-1.13.15L4.48,6.43a1,1,0,0,0-.15,1.15l2.76,4.74A13.8,13.8,0,0,1,8.68,10.05Z"/><path class="cls-1" d="M27.65,8.53,30,6.92,28.5,9.3a13.79,13.79,0,0,1,1.74,2.14l2.29-4a.94.94,0,0,0-.16-1.13l-1.59-1.6a1,1,0,0,0-1.15-.15L25.39,7A13.5,13.5,0,0,1,27.65,8.53Z"/><path class="cls-1" d="M5.41,19.42l-3.29-.65,3.3-.7a13.29,13.29,0,0,1,.48-2.83L.69,16.68A1,1,0,0,0,0,17.6v2.25a.94.94,0,0,0,.71.91l5.07,1.35A13.31,13.31,0,0,1,5.41,19.42Z"/><path class="cls-1" d="M28.75,28.21l1.31,1.95-2-1.29a13.88,13.88,0,0,1-2.23,1.66l3.74,2.12a.94.94,0,0,0,1.14-.16l1.59-1.59a.92.92,0,0,0,.15-1.14l-2.1-3.62A14.78,14.78,0,0,1,28.75,28.21Z"/><path class="cls-1" d="M9.5,28.6,7.05,30.24l1.64-2.51a13.19,13.19,0,0,1-1.64-2.35L4.57,29.77a1,1,0,0,0,.15,1.14L6.31,32.5a.94.94,0,0,0,1.15.15l4.12-2.4A13.71,13.71,0,0,1,9.5,28.6Z"/><path class="cls-1" d="M32,15.42a13.6,13.6,0,0,1,.43,2.64l2.42.48-2.4.51a13.57,13.57,0,0,1-.31,2.72l4.13-1.14a1,1,0,0,0,.7-.91V17.46a.94.94,0,0,0-.71-.91Z"/><path class="cls-1" d="M19.13,32.42l-.48,2.45-.52-2.47A13.93,13.93,0,0,1,15.36,32l1.2,4.34a1,1,0,0,0,.91.7h2.26a.94.94,0,0,0,.91-.71l1.1-4.15A13.21,13.21,0,0,1,19.13,32.42Z"/><path class="cls-2" d="M18.93,8A10.87,10.87,0,1,0,29.8,18.89,10.87,10.87,0,0,0,18.93,8Zm0,19.27a8.4,8.4,0,1,1,8.4-8.4A8.41,8.41,0,0,1,18.93,27.29Z"/><path class="cls-3" d="M68.15,12.64H61.43V29H56.22V12.64H49.5V8H68.15Z"/><path class="cls-3" d="M82.43,25.4H73.51L72.11,29H66.54L75.49,8h5L89.43,29H83.85ZM80.72,21,78,13.94,75.21,21Z"/><path class="cls-3" d="M110.34,19.21c0,6.53-3.78,10.22-9.82,10.22s-9.79-3.69-9.79-10.22V8H96V19.3c0,3.22,1.76,5.23,4.52,5.23s4.55-2,4.55-5.23V8h5.27Z"/><path class="cls-3" d="M127.65,29l-4-6.1h-4V29h-5.23V8h9.2c5.23,0,8.73,2.85,8.73,7.4a7,7,0,0,1-3.56,6.29L133.75,29Zm-8-10.81h3.87c2,0,3.6-1.11,3.6-2.85s-1.58-2.78-3.6-2.78h-3.87Z"/><path class="cls-3" d="M155.22,19.21c0,6.53-3.78,10.22-9.82,10.22s-9.79-3.69-9.79-10.22V8h5.27V19.3c0,3.22,1.76,5.23,4.52,5.23s4.55-2,4.55-5.23V8h5.27Z"/><path class="cls-3" d="M176.59,14.5h-5.26c-.28-1.58-1.24-2.67-3.47-2.67-1.86,0-3.07.72-3.07,2.08,0,1.21.87,1.73,2.54,2.07l2.95.62c3.87.81,6.34,2.39,6.34,6,0,4.22-3.46,6.82-8.73,6.82-4.74,0-9-2.26-9.51-7.47h5.27c.34,1.86,1.92,3,4.39,3,1.86,0,3-.71,3-1.89,0-.75-.4-1.52-2.23-1.86l-3.47-.74c-4.15-.9-6.1-2.79-6.1-6.14,0-4.21,3.4-6.81,8.36-6.81C171,7.56,176.07,8.83,176.59,14.5Z"/></g></g></svg>