<?xml version="1.0" encoding="utf-8"?>
<!-- Generator: Adobe Illustrator 23.0.1, SVG Export Plug-In . SVG Version: 6.00 Build 0)  -->
<svg version="1.1" id="Layer_1" xmlns="http://www.w3.org/2000/svg" xmlns:xlink="http://www.w3.org/1999/xlink" x="0px" y="0px"
	 viewBox="0 0 216 215" style="enable-background:new 0 0 216 215;" xml:space="preserve">
<style type="text/css">
	.st0{fill:#2165E5;}
</style>
<path class="st0" d="M139.9,44.2h-19.1H95.1H75.9c-5.2,0-9.4,4.2-9.4,9.4V70l0,0v28.5l0,0v19.1c0,5.2,4.2,9.4,9.4,9.4h21.9V97l0,0
	V75.5H118v23V127h21.9c5.2,0,9.4-4.2,9.4-9.4V98.5v-23V70V53.6C149.3,48.5,145.1,44.2,139.9,44.2z M75.9,121.5
	c-2.1,0-3.9-1.7-3.9-3.9V96.7l0,0V75.5h20.2v23l0,0v23H75.9z M143.8,98.5v19.1c0,2.1-1.7,3.9-3.9,3.9h-16.4v-23v-23h20.2L143.8,98.5
	L143.8,98.5z M120.8,70H118H97.8H95H72V53.6c0-2.1,1.7-3.9,3.9-3.9H95h25.7h19.1c2.1,0,3.9,1.7,3.9,3.9V70H120.8z"/>
<g>
	<path class="st0" d="M94.3,150.7v15.6h-3l-7.5-8.6v8.6H80v-15.6h3l7.5,8.8v-8.8H94.3z"/>
	<path class="st0" d="M108,160.8c0,3.4-2.5,5.9-6.1,5.9s-6.1-2.4-6.1-5.9c0-3.4,2.6-5.9,6.1-5.9S108,157.4,108,160.8z M104.5,160.8
		c0-1.6-1.1-2.8-2.6-2.8c-1.6,0-2.6,1.1-2.6,2.8c0,1.6,1.1,2.8,2.6,2.8S104.5,162.4,104.5,160.8z"/>
	<path class="st0" d="M109.2,151.4c0-1.2,1-2.1,2.2-2.1s2.2,0.9,2.2,2.1c0,1.2-1,2.1-2.2,2.1S109.2,152.6,109.2,151.4z M113.3,155.2
		v11.2h-3.7v-11.2H113.3z"/>
	<path class="st0" d="M120.1,163.9c1,0,1.6-0.3,1.6-0.8c0-0.4-0.4-0.7-1.2-0.8l-2.3-0.4c-1.9-0.3-3.3-1.4-3.3-3.4c0-2.3,2-3.7,5-3.7
		c2.6,0,5,0.9,5.2,3.8h-3.3c-0.1-0.8-0.9-1.2-1.9-1.2s-1.4,0.3-1.4,0.8c0,0.4,0.3,0.7,1.2,0.9l2.1,0.3c2.1,0.4,3.5,1.4,3.5,3.4
		c0,2.6-2.3,3.7-5.2,3.7c-2.9,0-5.2-1.2-5.5-4.1h3.3C118.1,163.5,118.9,163.9,120.1,163.9z"/>
	<path class="st0" d="M137.5,161.7h-8.1c0.3,1.2,1,2,2.5,2c0.8,0,1.3-0.2,1.7-0.6h3.8c-0.7,2.2-2.7,3.5-5.4,3.5
		c-3.7,0-6.1-2.5-6.1-5.9s2.4-5.9,5.8-5.9C135.7,154.9,138,157.7,137.5,161.7z M129.4,159.5h4.6c-0.2-1.3-1-1.9-2.3-1.9
		C130.5,157.7,129.7,158.4,129.4,159.5z"/>
</g>
</svg>
